<svg width="150" height="150" viewBox="0 0 150 150" fill="none" xmlns="http://www.w3.org/2000/svg">
<path d="M0 75C0 33.5786 33.5786 0 75 0C116.421 0 150 33.5786 150 75C150 116.421 116.421 150 75 150C33.5786 150 0 116.421 0 75Z" fill="url(#paint0_linear_1553_6099)"/>
<path d="M86.6872 30.2331C86.5621 30.6546 86.4384 31.0764 86.3129 31.4994C85.9929 32.2307 85.7071 32.9759 85.5005 33.7481C85.3932 34.1519 85.3225 34.5654 85.2849 34.9832C85.2075 35.2464 85.1298 35.5111 85.0509 35.774C84.2272 38.5657 85.2399 41.9754 88.2586 42.9831C91.3324 44.0078 94.0969 42.5951 95.4677 39.7753C95.6027 39.4971 95.7378 39.2188 95.8728 38.9406C95.9701 38.7825 96.039 38.6058 96.1191 38.4346C96.773 37.0897 97.4254 35.7445 98.0792 34.3996C98.6124 33.3037 98.5946 32.0862 98.2392 30.9575C98.1004 29.1302 97.1119 27.4432 95.3895 26.5019C93.1258 25.2646 90.0467 25.7204 88.4169 27.8329C87.6186 28.4094 86.9891 29.2079 86.6872 30.2331Z" fill="white"/>
<path d="M70.3779 98.9033C68.0983 97.2998 64.8241 97.1928 62.5078 98.7087C57.8716 99.1482 53.6446 102.667 52.5649 107.215C51.2742 112.652 54.2506 118.587 59.515 120.669C65.5041 123.04 72.1378 119.979 74.8368 114.302C77.395 108.923 75.1231 102.242 70.3779 98.9033ZM62.5847 110.066C62.6101 110.126 62.6415 110.194 62.6855 110.281C62.5839 110.195 62.5099 110.096 62.4463 109.992C62.5037 110.026 62.548 110.05 62.5847 110.066Z" fill="#6E6E6E"/>
<path d="M106.321 107.159C101.992 88.5284 111.503 66.8337 102.571 49.5952C101.901 47.7871 100.957 46.0744 99.7062 44.4806C99.5185 44.2247 99.3244 43.9768 99.1217 43.7393C99.0257 43.628 98.9261 43.5189 98.8264 43.4099C98.6491 43.2184 98.4651 43.0362 98.278 42.8611C97.4303 42.0006 96.5041 41.1722 95.424 40.4086C94.3947 39.6811 93.2784 39.3294 92.164 39.2601C91.6926 38.9905 91.2176 38.7232 90.7247 38.4876C88.4966 37.1187 85.964 36.5156 83.3349 36.4489C82.0442 36.3155 80.7265 36.2614 79.3761 36.3471C70.4151 36.9145 63.4015 41.7236 58.1086 48.2376C48.6974 57.0768 43.0471 69.7336 32.7188 77.8704C30.458 79.6512 29.3865 83.3159 30.7519 85.9659C35.1244 94.4613 43.5102 99.5897 52.175 103.337C55.4734 105.105 58.994 106.502 62.5884 107.715C65.9872 109.317 69.4849 110.692 73.1473 111.656C75.7572 112.343 78.3857 112.794 81.0241 113.111C86.3733 114.391 91.802 115.129 97.1477 114.302C101.649 115.949 107.704 113.108 106.321 107.159Z" fill="#DE496E"/>
<path d="M69.8167 65.3883C72.5349 62.5039 75.6291 59.9483 79.0991 57.7292C82.871 55.3173 81.3685 50.5413 78.2143 48.6416C76.4775 46.4402 73.3784 45.4315 70.6796 47.8337C67.8376 50.3635 65.2979 53.1081 62.9546 56.0004C61.5166 57.5669 60.1832 59.2062 58.9357 60.9051C55.9349 64.6657 53.408 68.8235 51.3608 73.3179C49.0822 78.3201 55.8735 82.8644 59.7332 80.0737C60.853 79.5567 61.834 78.6414 62.4374 77.1892C62.6561 76.6615 62.8983 76.1531 63.1327 75.6382C64.9504 72.8299 66.6382 69.771 68.5692 66.9555C68.9816 66.4277 69.3933 65.9028 69.8167 65.3883Z" fill="white"/>
<path d="M57.2846 50.078C57.2846 50.078 56.9079 50.4184 56.1889 51.0699C55.4576 51.714 54.4269 52.7267 53.1376 54.0923C50.5313 56.8019 47.1321 61.146 42.8766 66.5543C40.7273 69.2373 38.3044 72.1459 35.3894 74.9539C34.6795 75.6756 33.8845 76.3272 33.1072 77.0245C32.7144 77.3676 32.2903 77.6773 31.8781 78.0099C31.4569 78.3482 31.0825 78.6226 30.5158 79.1128C28.5583 80.9785 27.4551 83.731 27.934 86.7068C28.0389 87.4168 28.3645 88.2552 28.671 88.8119C28.9757 89.3697 29.2495 89.9547 29.5903 90.5036C30.2516 91.6154 30.9826 92.7071 31.8051 93.7495C33.4408 95.8415 35.3842 97.7636 37.5357 99.4966C39.6843 101.235 42.0466 102.773 44.5322 104.163C45.7737 104.863 47.0496 105.52 48.3487 106.15C48.8925 106.408 49.4388 106.668 49.9881 106.928C50.0763 106.992 50.2034 107.04 50.2356 107.111C50.1959 107.178 50.1626 107.243 50.1345 107.307L50.1148 107.354L50.1028 107.386L50.0535 107.586L49.8844 108.419C49.6875 109.536 49.6155 110.684 49.716 111.823C49.874 114.105 50.6335 116.345 51.8661 118.327C53.1085 120.307 54.8802 122.012 57.031 123.165C59.1907 124.279 61.6324 124.872 64.1059 124.748C69.069 124.566 73.7484 121.602 76.2613 117.236C76.4732 116.849 76.4109 116.955 76.4247 116.935L76.4302 116.931L76.4402 116.935L76.4167 116.936L77.1445 117.057L78.7802 117.325L79.5997 117.458L79.7029 117.475L79.7537 117.483L79.767 117.486C79.8075 117.492 79.7427 117.484 79.6727 117.471C79.7022 117.478 79.6125 117.456 79.7155 117.481L80.1223 117.575L81.7554 117.93C82.8486 118.15 83.9463 118.343 85.0492 118.511C87.4933 118.879 89.9287 119.12 92.3443 119.261C93.5533 119.33 94.757 119.374 95.9546 119.397C97.1296 119.424 98.5194 119.412 99.8368 119.21C101.175 119.013 102.56 118.678 103.939 117.977C105.296 117.292 106.714 116.114 107.466 114.498C108.234 112.9 108.317 111.211 108.147 109.786C107.927 108.633 107.709 107.485 107.492 106.343C105.988 98.0202 106.87 89.5134 107.328 81.4261C107.837 73.3473 107.943 65.394 106.012 58.2933C105.832 57.3991 105.449 56.5574 105.182 55.7058C104.892 54.8566 104.616 54.0155 104.203 53.2351C103.829 52.4525 103.459 51.6769 103.093 50.9118L102.631 49.8552C102.446 49.4621 102.251 49.0776 102.045 48.7015C101.213 47.175 100.236 45.895 99.148 44.66C98.5817 44.0453 97.968 43.5455 97.3833 43.0754C97.0273 42.796 96.6751 42.5204 96.3296 42.2495C96.3327 42.2424 96.3389 42.2283 96.3389 42.2283C96.5306 41.7799 96.7209 41.3373 96.9063 40.9029C97.2093 40.2267 97.5067 39.5616 97.8 38.908C97.9337 38.5938 98.1075 38.2668 98.2512 37.8247C98.3825 37.4108 98.4581 36.9891 98.484 36.5748C98.5117 36.1595 98.4831 35.7532 98.4231 35.3632C98.3939 35.1676 98.3528 34.9771 98.3048 34.7896C98.2541 34.5861 98.2005 34.4238 98.1693 34.3347C98.1544 34.2555 98.1353 34.0636 98.0927 33.8728C98.0613 33.6875 98.0116 33.5075 97.9646 33.3296C97.858 32.9741 97.7352 32.629 97.574 32.3031C97.2596 31.6501 96.8394 31.068 96.3502 30.5868C95.3708 29.6224 94.1352 29.055 92.9362 28.8863C90.5359 28.4957 88.3022 29.6348 87.2927 31.066C86.6738 31.5678 86.0563 32.3133 85.779 33.0201C85.4787 33.7604 85.3918 34.4059 85.2232 34.9944L85.2314 34.9714C84.9594 35.8142 84.7412 36.4923 84.5608 37.0503C84.4053 37.6076 84.4026 38.0704 84.3375 38.4309L84.407 38.3767C83.0035 38.3111 82.5065 38.2884 82.5065 38.2884C82.5065 38.2884 82.9992 38.3442 84.3903 38.5L84.4433 38.5057L84.4601 38.4443C84.5558 38.0922 84.5957 37.6501 84.7907 37.1171C85.0044 36.5837 85.2656 35.9353 85.5881 35.1301L85.5963 35.1072C85.8082 34.547 85.9755 33.8606 86.2816 33.261C86.6176 32.6309 87.0712 32.134 87.8174 31.6033C88.8894 30.3224 90.7602 29.6214 92.7176 30.0587C94.651 30.4783 96.4223 32.1512 96.4989 34.6589C96.8416 36.011 96.7548 36.8503 96.0343 38.0563C95.25 39.5688 94.4399 41.1345 93.601 42.7526L93.5737 42.8054C94.3027 43.4689 95.0418 44.1424 95.7911 44.8259C96.3236 45.3076 96.8423 45.7815 97.2702 46.308C98.1158 47.3927 98.9716 48.6471 99.5897 49.9662C99.7493 50.2995 99.8995 50.6399 100.039 50.9857L100.497 52.1852C100.799 52.9145 101.104 53.6506 101.412 54.3952C101.753 55.1161 101.962 55.9006 102.186 56.6883C102.388 57.4821 102.704 58.2455 102.826 59.0817C104.276 65.6517 103.903 73.1146 103.117 81.1067C102.413 89.0831 101.18 97.8293 102.664 107.19C102.848 108.244 103.035 109.303 103.22 110.366C103.296 111.171 103.199 111.829 102.965 112.29C102.585 113.182 101.071 113.931 99.1346 114.168C98.1574 114.303 97.2134 114.311 96.057 114.277C94.9227 114.248 93.7853 114.199 92.6464 114.129C90.3694 113.984 88.0854 113.753 85.8141 113.41C84.7892 113.252 83.773 113.076 82.7669 112.876L81.2689 112.554L80.8973 112.469C80.8707 112.463 80.6514 112.411 80.5484 112.401L80.2267 112.349L79.471 112.228C78.1554 112.019 76.8429 111.81 75.5364 111.602L73.9787 111.353L73.5896 111.291C73.5274 111.284 73.4552 111.261 73.4008 111.269L73.3208 111.446L72.9999 112.154C72.7889 112.634 72.5671 113.078 72.3655 113.585C72.1905 114.084 71.8514 114.623 71.8238 114.706C70.1846 117.623 67.0472 119.658 63.8467 119.811C62.2614 119.928 60.6512 119.552 59.2572 118.883C57.8732 118.175 56.6776 117.096 55.8083 115.784C54.9481 114.473 54.3801 112.958 54.237 111.427C54.1429 110.662 54.1731 109.895 54.2792 109.15L54.3712 108.593L54.4017 108.449L54.489 108.142C54.5546 107.932 54.6319 107.724 54.7173 107.516L55.8609 105.012C54.7348 104.42 53.5013 103.843 52.3512 103.275C51.6054 102.95 50.8638 102.628 50.125 102.306C48.8711 101.752 47.6456 101.174 46.4606 100.561C44.0851 99.345 41.8512 98.0089 39.8337 96.5089C37.8119 95.0141 35.9979 93.3658 34.4578 91.5741C33.6824 90.6817 32.9898 89.7443 32.3558 88.7874C32.0273 88.3157 31.7654 87.8093 31.467 87.3273C31.1788 86.8413 31.0553 86.5549 30.9484 86.097C30.5356 84.3929 31.1901 82.3027 32.3936 81.0714C33.2064 80.3401 34.0056 79.6213 34.7929 78.9138C35.5703 78.1328 36.3654 77.3976 37.0621 76.6032C39.9273 73.4974 42.2019 70.3789 44.185 67.5379C48.1006 61.8196 51.1192 57.299 53.4893 54.4049C54.6575 52.9502 55.5985 51.8602 56.2682 51.1589C56.9383 50.4485 57.2846 50.078 57.2846 50.078Z" fill="white"/>
<path d="M39.477 43.9121C39.4976 43.9306 39.0533 43.5818 38.1232 43.7491C37.6637 43.8215 37.183 43.9823 36.6224 44.1747C36.052 44.3619 35.4044 44.5969 34.7313 44.9456C31.9993 46.2136 28.4538 49.0062 26.359 53.29C24.2112 57.548 24.1192 62.0453 24.7323 64.9891C24.8571 65.7346 25.0491 66.3943 25.2411 66.9642C25.4143 67.5345 25.5962 68.0106 25.7838 68.3919C26.1325 69.1549 26.3503 69.5538 26.3503 69.5538C26.3503 69.5538 26.443 69.0553 26.5839 68.2933C26.6381 67.8978 26.7397 67.4152 26.8701 66.8663C26.9815 66.3193 27.1151 65.7075 27.3095 65.0457C27.9967 62.3863 29.2409 59.0237 30.9775 55.5866C32.6698 52.1258 34.5977 49.1158 36.3179 46.9801C36.73 46.4259 37.1437 45.9619 37.5148 45.5427C37.8831 45.1151 38.1977 44.7266 38.4616 44.4818C38.9807 43.9484 39.477 43.9121 39.477 43.9121Z" fill="white"/>
<path d="M36.7639 32.6088C36.7639 32.6088 36.5513 32.5892 36.1717 32.5539C35.779 32.508 35.2037 32.4957 34.4472 32.5034C32.9529 32.5601 30.7172 32.8479 28.1522 33.93C25.5947 34.9921 22.7234 36.835 20.1961 39.6071C17.6744 42.3542 15.5855 45.9528 14.1971 49.9124C12.8175 53.888 12.1286 57.7482 11.9064 61.3717C11.7001 64.9863 12.0908 68.3082 12.8788 70.9548C13.6434 73.6162 14.8091 75.5505 15.702 76.7497C16.1474 77.3575 16.5366 77.787 16.8133 78.0674C17.0757 78.343 17.2227 78.4967 17.2227 78.4967C17.2227 78.4967 17.1428 78.2991 16.9985 77.946C16.8432 77.5936 16.6307 77.0672 16.416 76.3776C15.9785 75.0059 15.4977 73.003 15.4198 70.5213C15.3193 68.0439 15.5854 65.1121 16.225 61.9026C16.8749 58.7095 17.833 55.1496 19.0597 51.6297C20.2995 48.1064 21.8057 44.9372 23.5957 42.3227C25.368 39.7181 27.4421 37.6491 29.4138 36.1771C31.3818 34.6873 33.2562 33.8104 34.5995 33.2922C35.2757 33.0543 35.8167 32.8667 36.1894 32.7733C36.5585 32.6683 36.7639 32.6088 36.7639 32.6088Z" fill="white"/>
<path d="M118.855 61.0309C118.855 61.0309 119.058 62.806 119.506 65.4526C119.937 68.1122 120.513 71.5531 120.485 75.0168C120.475 76.7598 120.32 78.3354 119.967 79.8034C119.618 81.28 119.082 82.6744 118.568 83.8708C118.049 85.0659 117.558 86.0628 117.219 86.7605C116.9 87.4268 116.689 87.8618 116.689 87.8618C116.689 87.8618 117.099 87.6945 117.797 87.3206C118.495 86.9449 119.487 86.3636 120.608 85.447C121.716 84.5292 122.977 83.2611 123.987 81.4703C125.008 79.682 125.641 77.3825 125.642 75.0486C125.652 72.706 125.107 70.5616 124.364 68.7854C123.623 67.0063 122.708 65.5699 121.875 64.4382C120.192 62.1837 118.855 61.0309 118.855 61.0309Z" fill="white"/>
<path d="M128.786 49.371C128.786 49.371 129.168 50.1878 129.773 51.4793C130.4 52.8283 131.244 54.8008 132.122 57.2458C133.885 62.125 135.601 69.0256 135.405 76.5449C135.204 84.0339 132.938 90.7252 130.38 95.1473C129.116 97.3695 127.861 99.0899 126.907 100.219C126.453 100.809 126.038 101.207 125.785 101.515C125.529 101.808 125.385 101.971 125.385 101.971C125.385 101.971 125.577 101.87 125.921 101.691C126.262 101.493 126.808 101.249 127.437 100.827C128.739 100.036 130.534 98.7045 132.45 96.6886C134.37 94.6796 136.331 91.9235 137.859 88.5127C139.386 85.111 140.423 81.0387 140.56 76.6879C140.66 72.3537 139.897 68.265 138.701 64.7803C137.511 61.2845 135.943 58.3691 134.425 56.0895C132.908 53.807 131.482 52.1292 130.44 51.0317C129.404 49.929 128.786 49.371 128.786 49.371Z" fill="white"/>
<defs>
<linearGradient id="paint0_linear_1553_6099" x1="75" y1="0" x2="75" y2="150" gradientUnits="userSpaceOnUse">
<stop/>
<stop offset="0.510417" stop-opacity="0.62"/>
<stop offset="1"/>
</linearGradient>
</defs>
</svg>
