<svg width="22" height="25" viewBox="0 0 22 25" fill="none" xmlns="http://www.w3.org/2000/svg">
<path d="M13.7103 3.13217C13.6851 3.21699 13.6602 3.30187 13.635 3.38698C13.5706 3.53415 13.5131 3.6841 13.4715 3.83948C13.4499 3.92073 13.4357 4.00394 13.4281 4.08802C13.4126 4.14099 13.3969 4.19425 13.381 4.24715C13.2153 4.80892 13.4191 5.49504 14.0265 5.69782C14.6451 5.90401 15.2013 5.61974 15.4772 5.05233C15.5043 4.99634 15.5315 4.94035 15.5587 4.88435C15.5783 4.85255 15.5921 4.81698 15.6083 4.78253C15.7398 4.51191 15.8711 4.24122 16.0027 3.97059C16.11 3.75005 16.1064 3.50506 16.0349 3.27794C16.0069 2.91024 15.808 2.57076 15.4614 2.38136C15.0059 2.13237 14.3863 2.2241 14.0584 2.64919C13.8977 2.76518 13.7711 2.92588 13.7103 3.13217Z" fill="black"/>
<path d="M10.4284 16.9505C9.96972 16.6278 9.31086 16.6063 8.84476 16.9113C7.91183 16.9998 7.06124 17.7079 6.84398 18.6231C6.58425 19.7171 7.18319 20.9113 8.24254 21.3304C9.4477 21.8074 10.7826 21.1916 11.3257 20.0492C11.8405 18.9666 11.3833 17.6223 10.4284 16.9505ZM8.86024 19.1968C8.86534 19.2088 8.87166 19.2224 8.88052 19.24C8.86008 19.2226 8.84518 19.2028 8.83239 19.1818C8.84394 19.1888 8.85285 19.1936 8.86024 19.1968Z" fill="#6E6E6E"/>
<path d="M17.6611 18.6118C16.7901 14.8628 18.7039 10.4972 16.9066 7.02834C16.7718 6.6645 16.5818 6.31986 16.3301 5.99914C16.2923 5.94766 16.2533 5.89776 16.2125 5.84998C16.1931 5.82757 16.1731 5.80563 16.1531 5.78368C16.1174 5.74515 16.0803 5.70849 16.0427 5.67326C15.8721 5.5001 15.6857 5.3334 15.4684 5.17974C15.2613 5.03335 15.0366 4.96257 14.8124 4.94864C14.7175 4.89439 14.622 4.8406 14.5228 4.79318C14.0744 4.51772 13.5648 4.39637 13.0357 4.38295C12.776 4.35611 12.5109 4.34521 12.2391 4.36245C10.4359 4.47664 9.02459 5.44435 7.95951 6.75514C6.06572 8.53383 4.92873 11.0807 2.85039 12.7181C2.39545 13.0764 2.17985 13.8139 2.4546 14.3471C3.33447 16.0566 5.02192 17.0886 6.76551 17.8428C7.42923 18.1984 8.13767 18.4796 8.86098 18.7236C9.54491 19.046 10.2487 19.3227 10.9857 19.5167C11.5109 19.655 12.0398 19.7457 12.5707 19.8094C13.6471 20.0671 14.7395 20.2154 15.8152 20.0491C16.7211 20.3806 17.9394 19.8089 17.6611 18.6118Z" fill="#DE496E"/>
<path d="M10.3155 10.2064C10.8625 9.62595 11.4851 9.11169 12.1834 8.66517C12.9424 8.17982 12.6401 7.21875 12.0053 6.83648C11.6558 6.3935 11.0322 6.19053 10.4892 6.67392C9.91727 7.18298 9.40622 7.73527 8.93467 8.31728C8.64531 8.63249 8.37699 8.96238 8.12596 9.30424C7.52213 10.061 7.01364 10.8976 6.60168 11.802C6.14318 12.8086 7.50977 13.723 8.28644 13.1615C8.51177 13.0575 8.70917 12.8733 8.83061 12.581C8.8746 12.4749 8.92335 12.3725 8.97051 12.2689C9.3363 11.7038 9.67592 11.0883 10.0645 10.5217C10.1475 10.4155 10.2303 10.3099 10.3155 10.2064Z" fill="white"/>
<path d="M7.79369 7.12552C7.79369 7.12552 7.71788 7.19403 7.5732 7.32513C7.42604 7.45473 7.21864 7.65852 6.9592 7.93332C6.43475 8.47855 5.75072 9.35272 4.89442 10.441C4.46191 10.9809 3.97435 11.5662 3.38778 12.1312C3.24492 12.2765 3.08495 12.4076 2.92854 12.5479C2.84949 12.6169 2.76415 12.6793 2.6812 12.7462C2.59645 12.8143 2.52111 12.8695 2.40707 12.9681C2.01318 13.3436 1.79118 13.8974 1.88755 14.4962C1.90865 14.6391 1.97418 14.8078 2.03585 14.9198C2.09716 15.0321 2.15226 15.1498 2.22083 15.2603C2.35391 15.484 2.501 15.7037 2.66652 15.9134C2.99567 16.3344 3.38673 16.7212 3.81966 17.0699C4.25203 17.4197 4.7274 17.7293 5.22756 18.0088C5.47737 18.1498 5.73413 18.282 5.99555 18.4087C6.10496 18.4606 6.2149 18.5129 6.32544 18.5654C6.34318 18.5781 6.36876 18.5879 6.37524 18.6021C6.36724 18.6156 6.36056 18.6287 6.3549 18.6415L6.35092 18.6509L6.34851 18.6576L6.33859 18.6978L6.30456 18.8654C6.26494 19.0902 6.25045 19.3211 6.27069 19.5502C6.30248 20.0095 6.4553 20.4603 6.70333 20.8591C6.95335 21.2574 7.30986 21.6006 7.74266 21.8327C8.17725 22.0567 8.66859 22.1762 9.16633 22.1511C10.165 22.1144 11.1067 21.518 11.6123 20.6396C11.655 20.5618 11.6424 20.583 11.6452 20.5789L11.6463 20.5782L11.6483 20.579L11.6436 20.5792L11.79 20.6035L12.1192 20.6574L12.2841 20.6842L12.3049 20.6876L12.3151 20.6893L12.3178 20.6899C12.3259 20.6911 12.3129 20.6894 12.2988 20.6869C12.3047 20.6882 12.2867 20.6839 12.3074 20.6888L12.3892 20.7077L12.7179 20.7793C12.9379 20.8235 13.1587 20.8622 13.3807 20.8962C13.8725 20.9702 14.3626 21.0186 14.8487 21.0471C15.0919 21.0609 15.3342 21.0698 15.5752 21.0743C15.8116 21.0798 16.0912 21.0774 16.3564 21.0368C16.6256 20.9972 16.9042 20.9297 17.1818 20.7887C17.455 20.6507 17.7402 20.4138 17.8915 20.0887C18.046 19.767 18.0627 19.4271 18.0285 19.1403C17.9843 18.9084 17.9405 18.6775 17.8967 18.4475C17.5941 16.7728 17.7717 15.061 17.8637 13.4336C17.9662 11.8079 17.9876 10.2075 17.5989 8.77867C17.5627 8.59874 17.4858 8.42936 17.432 8.25799C17.3735 8.08711 17.3181 7.91785 17.235 7.76081C17.1598 7.60335 17.0852 7.44728 17.0117 7.29331L16.9185 7.0807C16.8813 7.00159 16.8422 6.92423 16.8007 6.84854C16.6333 6.54136 16.4367 6.28379 16.2177 6.03528C16.1038 5.91158 15.9803 5.81101 15.8627 5.71642C15.791 5.66018 15.7201 5.60474 15.6506 5.55022C15.6512 5.5488 15.6525 5.54596 15.6525 5.54596C15.6911 5.45571 15.7294 5.36665 15.7667 5.27924C15.8276 5.14317 15.8875 5.00933 15.9465 4.87781C15.9734 4.81459 16.0084 4.7488 16.0373 4.65983C16.0637 4.57653 16.0789 4.49167 16.0841 4.40832C16.0897 4.32474 16.084 4.24299 16.0719 4.1645C16.066 4.12514 16.0577 4.0868 16.0481 4.04909C16.0379 4.00814 16.0271 3.97548 16.0208 3.95755C16.0178 3.9416 16.014 3.903 16.0054 3.8646C15.9991 3.82732 15.9891 3.79109 15.9796 3.75529C15.9582 3.68376 15.9335 3.61431 15.901 3.54874C15.8377 3.41734 15.7532 3.30021 15.6548 3.20336C15.4577 3.00931 15.209 2.89513 14.9678 2.86118C14.4848 2.78257 14.0353 3.0118 13.8321 3.2998C13.7076 3.40078 13.5833 3.55078 13.5275 3.693C13.4671 3.84199 13.4496 3.97188 13.4157 4.09029L13.4173 4.08567C13.3626 4.25526 13.3187 4.39172 13.2824 4.50399C13.2511 4.61613 13.2506 4.70927 13.2375 4.78181L13.2515 4.7709C12.969 4.7577 12.869 4.75313 12.869 4.75313C12.869 4.75313 12.9682 4.76437 13.2481 4.79572L13.2588 4.79686L13.2621 4.78452C13.2814 4.71366 13.2894 4.6247 13.3287 4.51745C13.3717 4.41011 13.4242 4.27963 13.4891 4.11761L13.4908 4.11299C13.5334 4.00026 13.5671 3.86214 13.6287 3.74148C13.6963 3.61469 13.7876 3.5147 13.9377 3.40791C14.1534 3.15016 14.5299 3.0091 14.9238 3.0971C15.3128 3.18154 15.6693 3.51816 15.6847 4.02279C15.7536 4.29487 15.7362 4.46374 15.5912 4.70642C15.4334 5.01079 15.2703 5.32585 15.1015 5.65146L15.096 5.66209C15.2427 5.7956 15.3915 5.93112 15.5422 6.06867C15.6494 6.16559 15.7538 6.26095 15.8399 6.36689C16.01 6.58517 16.1822 6.8376 16.3066 7.10304C16.3387 7.17009 16.369 7.2386 16.3971 7.30819L16.4891 7.54956C16.5499 7.6963 16.6113 7.84444 16.6732 7.99426C16.7419 8.13934 16.7839 8.29719 16.829 8.45571C16.8697 8.61544 16.9333 8.76906 16.9578 8.93732C17.2496 10.2594 17.1745 11.7611 17.0163 13.3693C16.8748 14.9744 16.6266 16.7344 16.9252 18.6181C16.9623 18.83 16.9998 19.0433 17.0372 19.2572C17.0525 19.419 17.0328 19.5516 16.9859 19.6443C16.9093 19.8237 16.6046 19.9745 16.215 20.0222C16.0184 20.0494 15.8285 20.0509 15.5958 20.0441C15.3675 20.0384 15.1386 20.0284 14.9094 20.0143C14.4512 19.9852 13.9917 19.9387 13.5346 19.8696C13.3284 19.8379 13.1239 19.8025 12.9214 19.7622L12.62 19.6974L12.5452 19.6803C12.5399 19.6791 12.4957 19.6687 12.475 19.6665L12.4103 19.6561L12.2582 19.6318C11.9935 19.5898 11.7294 19.5476 11.4665 19.5057L11.153 19.4557L11.0747 19.4432C11.0622 19.4419 11.0477 19.4371 11.0367 19.4387L11.0206 19.4744L10.956 19.6169C10.9136 19.7134 10.8689 19.8029 10.8284 19.9049C10.7932 20.0053 10.7249 20.1138 10.7194 20.1304C10.3895 20.7175 9.75819 21.1269 9.11416 21.1577C8.79515 21.1812 8.47115 21.1057 8.19062 20.971C7.91212 20.8286 7.67154 20.6114 7.49661 20.3475C7.32353 20.0836 7.20923 19.7786 7.18043 19.4706C7.16149 19.3167 7.16758 19.1624 7.18891 19.0125L7.20743 18.9003L7.21357 18.8714L7.23114 18.8095C7.24433 18.7673 7.2599 18.7255 7.27708 18.6835L7.5072 18.1798C7.2806 18.0606 7.03238 17.9446 6.80095 17.8302C6.65088 17.7649 6.50164 17.7 6.35299 17.6353C6.10066 17.5237 5.85406 17.4075 5.61561 17.284C5.13759 17.0394 4.68806 16.7705 4.28208 16.4687C3.87524 16.1679 3.51023 15.8362 3.20032 15.4757C3.04428 15.2961 2.90491 15.1075 2.77734 14.9149C2.71123 14.82 2.65852 14.7181 2.59849 14.6211C2.54049 14.5233 2.51564 14.4657 2.49412 14.3735C2.41106 14.0306 2.54277 13.61 2.78495 13.3622C2.9485 13.2151 3.10931 13.0704 3.26774 12.9281C3.42418 12.7709 3.58417 12.623 3.72436 12.4631C4.30094 11.8381 4.75863 11.2106 5.1577 10.6389C5.94561 9.48827 6.55305 8.57859 7.02998 7.99622C7.26504 7.7035 7.45439 7.48415 7.58915 7.34304C7.72401 7.20008 7.79369 7.12552 7.79369 7.12552Z" fill="black"/>
</svg>
