<svg width="20" height="20" viewBox="0 0 20 20" fill="none" xmlns="http://www.w3.org/2000/svg">
<g clip-path="url(#clip0_1794_6394)">
<g clip-path="url(#clip1_1794_6394)">
<g clip-path="url(#clip2_1794_6394)">
<path fill-rule="evenodd" clip-rule="evenodd" d="M19.9405 17.1311C19.8526 16.7091 19.4393 16.4382 19.0171 16.5261C18.5951 16.6139 18.3242 17.0273 18.4121 17.4493C18.4627 17.6925 18.4024 17.9416 18.2467 18.1331C18.1566 18.244 17.9555 18.43 17.6223 18.43H2.37685C2.04362 18.43 1.84258 18.244 1.75242 18.1331C1.59673 17.9417 1.53647 17.6925 1.58709 17.4493C2.39719 13.5583 5.82924 10.7159 9.79265 10.6201C9.8613 10.6227 9.93027 10.6241 9.99958 10.6241C10.0691 10.6241 10.1384 10.6227 10.2073 10.62C12.9992 10.687 15.5796 12.1011 17.1423 14.4317C17.3824 14.7898 17.8673 14.8854 18.2254 14.6453C18.5835 14.4052 18.6791 13.9203 18.439 13.5623C17.1582 11.652 15.2983 10.263 13.1777 9.56501C14.47 8.59595 15.3076 7.05198 15.3076 5.31607C15.3076 2.38925 12.9265 0.00805664 9.99959 0.00805664C7.07273 0.00805664 4.69158 2.38925 4.69158 5.31607C4.69158 7.05304 5.53025 8.59782 6.82388 9.56681C5.63863 9.95703 4.52649 10.5642 3.55309 11.3649C1.76819 12.833 0.527172 14.8809 0.058702 17.1311C-0.088128 17.8363 0.087782 18.5605 0.541222 19.1181C0.992442 19.6729 1.66152 19.9911 2.37685 19.9911H17.6223C18.3376 19.9911 19.0067 19.6729 19.4579 19.1181C19.9114 18.5605 20.0873 17.8363 19.9405 17.1311ZM6.25274 5.31607C6.25274 3.25004 7.93354 1.56924 9.99957 1.56924C12.0656 1.56924 13.7464 3.25004 13.7464 5.31607C13.7464 7.31848 12.1675 8.95904 10.1892 9.05814C10.1261 9.05697 10.0629 9.05638 9.99957 9.05638C9.93658 9.05638 9.87358 9.05701 9.81067 9.05818C7.83207 8.95947 6.25274 7.31875 6.25274 5.31607Z" fill="#8F9BB3"/>
</g>
</g>
</g>
<defs>
<clipPath id="clip0_1794_6394">
<rect width="20" height="20" fill="white"/>
</clipPath>
<clipPath id="clip1_1794_6394">
<rect width="19.9831" height="19.9831" fill="white" transform="translate(0.00805664 0.00805664)"/>
</clipPath>
<clipPath id="clip2_1794_6394">
<rect width="19.9831" height="19.9831" fill="white" transform="translate(0.00805664 0.00805664)"/>
</clipPath>
</defs>
</svg>
